<?xml version="1.0" encoding="UTF-8" standalone="no"?>
<svg
   xmlns:dc="http://purl.org/dc/elements/1.1/"
   xmlns:cc="http://creativecommons.org/ns#"
   xmlns:rdf="http://www.w3.org/1999/02/22-rdf-syntax-ns#"
   xmlns:svg="http://www.w3.org/2000/svg"
   xmlns="http://www.w3.org/2000/svg"
   viewBox="0 0 404.76001 404.76001"
   height="404.76001"
   width="404.76001"
   xml:space="preserve"
   id="svg29"
   version="1.1"><metadata
     id="metadata35"><rdf:RDF><cc:Work
         rdf:about=""><dc:format>image/svg+xml</dc:format><dc:type
           rdf:resource="http://purl.org/dc/dcmitype/StillImage" /><dc:title></dc:title></cc:Work></rdf:RDF></metadata><defs
     id="defs33" /><g
     transform="matrix(1.3333333,0,0,-1.3333333,0,404.76)"
     id="g37"><g
       transform="scale(0.1)"
       id="g39"><path
         id="path41"
         style="fill:#4272c1;fill-opacity:1;fill-rule:nonzero;stroke:none"
         d="M 3035.7,302.102 C 3035.7,135.219 2900.41,0 2733.61,0 H 302.063 C 135.227,0 0,135.219 0,302.102 V 2733.59 c 0,166.87 135.227,302.09 302.063,302.09 H 2733.61 c 166.8,0 302.09,-135.22 302.09,-302.09 V 302.102" /><path
         id="path43"
         style="fill:#ffffff;fill-opacity:1;fill-rule:nonzero;stroke:none"
         d="m 2484.2,1641.27 h -723.9 c -5.19,0 -9.77,-3.34 -11.33,-8.3 -11.94,-36.31 -29.87,-68.43 -53.44,-95.27 -19.71,-22.58 -45.32,-42.52 -76.12,-59.43 -4.8,-2.64 -7.2,-8.15 -5.82,-13.42 1.33,-5.35 6.14,-8.99 11.64,-8.99 h 858.97 c 3.17,0 6.2,1.24 8.46,3.48 2.24,2.25 3.48,5.28 3.48,8.46 v 161.6 c 0,6.51 -5.35,11.87 -11.94,11.87" /><path
         id="path45"
         style="fill:#ffffff;fill-opacity:1;fill-rule:nonzero;stroke:none"
         d="m 2526.71,1107.37 h -737.39 c -4.58,0 -8.69,-2.64 -10.71,-6.68 -2.02,-4.11 -1.47,-8.99 1.24,-12.57 l 126.92,-163.991 c 2.25,-2.867 5.74,-4.66 9.39,-4.66 h 610.55 c 3.18,0 6.2,1.32 8.46,3.492 2.24,2.25 3.48,5.277 3.48,8.449 l -0.08,163.93 c 0,6.67 -5.27,12.03 -11.86,12.03" /><path
         id="path47"
         style="fill:#ffffff;fill-opacity:1;fill-rule:nonzero;stroke:none"
         d="m 2677.14,2113.57 h -87.98 c -1.63,0 -2.87,-1.32 -2.87,-2.87 v -14.66 c 0,-1.55 1.24,-2.87 2.87,-2.87 h 33.52 v -70.52 c 0,-1.55 1.24,-2.87 2.87,-2.87 h 15.2 c 1.63,0 2.87,1.32 2.87,2.87 v 70.52 h 33.52 c 1.63,0 2.87,1.32 2.87,2.87 v 14.66 c 0,1.55 -1.24,2.87 -2.87,2.87" /><path
         id="path49"
         style="fill:#ffffff;fill-opacity:1;fill-rule:nonzero;stroke:none"
         d="m 2823.76,2113.57 h -13.97 c -0.92,0 -1.94,-0.46 -2.4,-1.32 l -41.81,-65.32 -42.36,65.32 c -0.54,0.86 -1.48,1.32 -2.41,1.32 h -13.96 c -1.64,0 -2.95,-1.32 -2.95,-2.87 v -88.05 c 0,-1.55 1.31,-2.87 2.95,-2.87 h 15.2 c 1.63,0 2.95,1.32 2.95,2.87 v 48.95 l 32.51,-50.5 c 0.54,-0.78 1.47,-1.32 2.4,-1.32 h 10.86 c 1.01,0 1.87,0.54 2.41,1.32 l 32.5,50.35 v -48.8 c 0,-1.55 1.32,-2.87 2.87,-2.87 h 15.21 c 1.55,0 2.87,1.32 2.87,2.87 v 88.05 c 0,1.55 -1.32,2.87 -2.87,2.87" /><path
         id="path51"
         style="fill:#ffffff;fill-opacity:1;fill-rule:nonzero;stroke:none"
         d="m 1611.97,2027.54 c 13.34,-6.99 24.75,-13.81 34.91,-20.8 30.18,-20.94 54.93,-46.31 73.63,-75.48 2.17,-3.41 5.96,-5.51 10,-5.51 h 795.43 c 3.17,0 6.2,1.24 8.38,3.49 2.32,2.25 3.48,5.28 3.48,8.38 v 164 c 0,6.6 -5.35,11.95 -11.94,11.95 h -908.38 c -6.6,0 -11.87,-5.35 -11.87,-11.95 v -63.53 c 0,-4.43 2.4,-8.54 6.36,-10.55" /><path
         id="path53"
         style="fill:#ffffff;fill-opacity:1;fill-rule:nonzero;stroke:none"
         d="m 1274.82,1414.5 c -1.59,2.02 -2.09,4.73 -1.31,7.14 0.7,2.49 2.59,4.5 5.04,5.35 65.17,22.04 116.45,53.99 152.25,94.96 50.77,57.95 76.53,134.76 76.53,228.31 0,59.2 -10.24,112.27 -30.52,157.65 -21.07,47.24 -54.66,87.12 -99.89,118.46 -43.01,29.72 -98.06,52.13 -163.61,66.57 -62.72,13.65 -138.56,20.63 -225.372,20.63 H 405.234 c -6.55,0 -11.906,-5.35 -11.906,-11.95 v -3.64 c 0,-3.34 1.36,-6.52 3.762,-8.69 l 171.765,-160.36 c 2.208,-2.09 5.122,-3.18 8.149,-3.18 h 304.805 c 86.382,0 160.011,-2.79 218.821,-8.22 55.31,-5.12 99.96,-14.82 132.81,-28.71 28.04,-12.1 47.2,-27.69 58.61,-47.71 12.37,-21.8 18.61,-52.36 18.61,-90.85 0,-38.71 -6.28,-69.04 -18.69,-90.14 -11.6,-19.7 -31.15,-34.99 -59.66,-46.86 -33.2,-13.81 -78.32,-23.2 -134.06,-27.85 -59.66,-4.89 -133.504,-7.37 -219.656,-7.37 H 577.078 c -2.293,0 -4.578,-0.7 -6.48,-1.94 L 398.762,1464.77 c -3.371,-2.24 -5.434,-6.04 -5.434,-10.08 V 931.41 c 0,-6.512 5.356,-11.941 11.906,-11.941 h 170.332 c 6.59,0 11.985,5.429 11.985,11.941 v 450.82 c 0,4.42 3.535,7.99 7.918,7.99 l 460.701,0.08 c 2.48,0 4.88,-1.16 6.36,-3.11 l 346.55,-462.838 c 2.21,-3.024 5.77,-4.883 9.54,-4.883 h 214.92 c 4.58,0 8.69,2.64 10.7,6.75 2.02,4.031 1.47,8.922 -1.24,12.57 L 1274.82,1414.5" /></g></g></svg>